<?xml version="1.0" standalone="no"?>
<!DOCTYPE svg PUBLIC "-//W3C//DTD SVG 20010904//EN"
 "http://www.w3.org/TR/2001/REC-SVG-20010904/DTD/svg10.dtd">
<svg version="1.0" xmlns="http://www.w3.org/2000/svg"
 width="500.000000pt" height="500.000000pt" viewBox="0 0 500.000000 500.000000"
 preserveAspectRatio="xMidYMid meet">

<g transform="translate(0.000000,500.000000) scale(0.100000,-0.100000)"
fill="#000000" stroke="none">
<path d="M2476 4038 c-22 -31 -20 -74 4 -98 57 -57 132 29 84 98 -10 14 -26
22 -44 22 -18 0 -34 -8 -44 -22z m79 -12 c21 -31 10 -74 -22 -89 -22 -10 -28
-8 -44 12 -23 28 -24 49 -3 79 20 29 50 28 69 -2z"/>
<path d="M2615 3997 c-9 -79 0 -103 10 -28 8 56 23 74 57 69 21 -3 23 -7 22
-68 -1 -43 1 -58 6 -45 14 34 11 102 -5 115 -8 7 -28 10 -45 8 -16 -2 -31 0
-33 6 -3 6 -8 -20 -12 -57z"/>
<path d="M2293 4043 c-7 -2 -13 -13 -13 -23 0 -22 16 -35 53 -44 18 -4 27 -13
27 -26 0 -13 -9 -22 -27 -26 -46 -10 -49 -12 -17 -13 40 -1 73 31 55 53 -7 8
-28 20 -47 26 -46 15 -42 43 6 51 33 6 34 6 5 7 -16 0 -36 -2 -42 -5z"/>
<path d="M2187 4028 c-44 -16 -33 -49 21 -66 23 -8 42 -20 42 -28 0 -18 -44
-36 -67 -27 -14 5 -16 3 -6 -7 21 -22 77 0 81 32 3 23 -2 27 -40 39 -52 17
-58 43 -10 47 18 2 30 8 27 13 -7 11 -11 11 -48 -3z"/>
<path d="M2766 4008 c-38 -53 -7 -120 54 -117 l25 2 -25 4 c-33 6 -60 31 -60
55 0 14 5 18 18 14 9 -2 32 -7 50 -11 28 -6 32 -4 32 15 0 59 -62 84 -94 38z
m72 0 c21 -21 14 -38 -15 -38 -42 0 -60 15 -44 34 16 19 42 21 59 4z"/>
<path d="M2965 3950 c-15 -45 -25 -83 -22 -86 3 -3 11 12 18 35 7 23 13 41 14
41 1 0 23 -7 49 -16 41 -14 47 -20 42 -38 -17 -62 -18 -71 -13 -66 12 11 66
170 58 170 -5 0 -12 -13 -16 -30 -9 -40 -15 -42 -69 -24 -34 12 -46 20 -42 31
10 26 18 63 14 63 -3 0 -17 -36 -33 -80z"/>
<path d="M2065 3998 c-30 -17 -36 -30 -30 -62 7 -39 32 -66 61 -66 29 0 54 10
54 21 0 6 -8 5 -19 -1 -31 -16 -59 -12 -71 10 -9 17 -7 22 12 29 13 5 32 10
42 12 28 6 30 25 7 48 -24 24 -28 25 -56 9z m52 -23 c7 -20 3 -23 -35 -31 -27
-6 -32 -4 -32 13 0 11 3 23 7 26 12 13 54 7 60 -8z"/>
<path d="M1810 3950 c0 -5 5 -10 11 -10 5 0 7 5 4 10 -3 6 -8 10 -11 10 -2 0
-4 -4 -4 -10z"/>
<path d="M1914 3945 c-12 -8 -25 -11 -29 -7 -5 4 -6 0 -3 -8 24 -64 43 -107
51 -115 7 -7 7 -3 2 10 -24 61 -29 94 -16 109 16 19 45 21 58 4 6 -7 16 -31
23 -53 7 -22 15 -35 17 -28 3 7 -5 33 -16 58 -22 49 -48 58 -87 30z"/>
<path d="M3150 3909 c0 -5 8 -9 19 -9 24 0 43 -23 35 -43 -4 -12 -11 -14 -31
-6 -38 14 -61 11 -73 -11 -8 -16 -6 -24 11 -41 12 -12 29 -19 39 -16 11 3 21
0 22 -5 2 -6 15 13 28 42 18 38 21 56 14 68 -12 18 -64 35 -64 21z m21 -69
c25 -14 24 -27 -1 -40 -27 -14 -60 -4 -60 19 0 32 24 40 61 21z"/>
<path d="M1830 3903 c1 -5 14 -33 31 -63 31 -58 30 -31 -2 33 -18 35 -30 47
-29 30z"/>
<path d="M1730 3860 c-11 -11 -24 -20 -29 -20 -5 0 12 -38 37 -85 25 -47 47
-83 49 -81 3 2 -2 17 -10 32 -15 28 -14 29 17 39 26 9 31 15 34 47 3 29 -2 43
-22 63 -30 30 -49 32 -76 5z m69 -16 c29 -37 27 -72 -4 -86 -30 -13 -47 -2
-66 44 -12 28 -11 32 10 49 30 25 36 24 60 -7z"/>
<path d="M3241 3806 c-18 -31 -31 -59 -29 -61 3 -3 15 13 27 35 30 54 53 65
83 40 l23 -19 -28 -50 c-16 -28 -26 -51 -23 -51 11 0 56 80 56 100 0 21 -43
55 -59 46 -5 -3 -11 -1 -13 6 -2 6 -19 -14 -37 -46z"/>
<path d="M1600 3780 c-11 -11 -25 -20 -30 -20 -12 0 91 -159 103 -160 5 0 -1
13 -12 29 -22 31 -26 42 -13 39 4 -1 17 1 29 6 27 9 39 46 24 74 -29 54 -67
66 -101 32z m55 4 c25 -10 47 -61 36 -83 -16 -28 -37 -32 -65 -10 -34 27 -42
56 -20 80 19 21 24 22 49 13z"/>
<path d="M3493 3750 l-20 -31 -17 25 c-23 36 -58 34 -90 -5 -14 -17 -26 -39
-26 -49 0 -24 26 -50 50 -50 10 0 20 -5 22 -11 2 -5 24 18 48 53 57 79 63 88
57 94 -2 3 -13 -9 -24 -26z m-49 -6 c21 -21 20 -36 -5 -68 -23 -29 -60 -34
-79 -11 -10 12 -10 21 0 45 20 48 56 63 84 34z"/>
<path d="M3550 3705 c-7 -9 -19 -14 -26 -11 -7 3 -11 0 -8 -7 2 -7 -12 -32
-32 -55 -20 -24 -34 -45 -32 -48 3 -2 22 16 43 41 30 37 40 44 51 34 9 -8 14
-8 14 -1 0 6 -5 14 -12 18 -8 5 -6 11 7 20 14 10 23 11 39 2 19 -10 20 -10 7
5 -17 21 -35 22 -51 2z"/>
<path d="M1483 3698 c-24 -31 -24 -41 -1 -20 27 25 39 27 55 11 7 -7 4 -18
-14 -35 -27 -27 -28 -61 -1 -78 13 -8 22 -6 37 8 12 11 21 24 21 30 0 6 -5 3
-11 -6 -13 -22 -48 -23 -56 -2 -3 10 4 26 20 42 25 24 27 25 33 6 8 -20 23
-34 37 -34 5 0 -8 20 -29 45 -37 46 -72 58 -91 33z"/>
<path d="M1380 3664 c0 -6 11 -21 25 -34 l25 -24 -37 -38 -37 -38 -28 27 c-15
15 -30 24 -33 22 -2 -3 25 -34 60 -69 36 -36 65 -60 65 -55 0 5 -12 22 -27 37
-31 32 -27 47 20 82 l27 20 30 -29 c16 -16 32 -26 35 -24 2 3 -25 34 -60 69
-36 36 -65 60 -65 54z"/>
<path d="M3547 3602 c-46 -47 -48 -76 -5 -102 l33 -20 42 42 c23 23 40 44 38
47 -3 2 -23 -13 -45 -34 -33 -32 -44 -37 -57 -29 -40 25 -39 42 2 84 21 22 36
42 34 45 -3 2 -22 -12 -42 -33z"/>
<path d="M2360 3598 c-250 -24 -478 -139 -631 -319 -171 -202 -286 -475 -329
-781 -7 -50 -18 -79 -42 -113 -30 -42 -33 -54 -32 -113 0 -48 11 -100 36 -182
20 -63 53 -176 73 -250 79 -291 131 -427 183 -483 51 -53 87 -58 567 -64 242
-4 571 -7 730 -7 284 -1 291 -1 342 23 63 28 126 94 158 164 13 29 44 127 70
219 54 198 94 315 143 418 44 94 51 190 16 237 -17 23 -23 50 -28 133 -18 274
-76 465 -199 653 -145 222 -346 359 -633 431 -86 22 -134 28 -309 40 -16 1
-68 -2 -115 -6z m355 -43 c260 -54 486 -178 610 -337 152 -194 224 -368 255
-618 15 -123 13 -275 -3 -289 -12 -9 -15 14 -20 129 -25 540 -241 877 -666
1037 -281 106 -664 84 -905 -51 -165 -93 -309 -284 -415 -551 -60 -152 -109
-350 -126 -509 -6 -51 -9 -57 -21 -44 -12 12 -12 31 -4 118 36 347 165 649
366 860 145 152 308 235 530 270 83 13 304 5 399 -15z m-55 -45 c256 -37 511
-177 647 -355 93 -121 164 -291 197 -466 22 -120 31 -239 18 -239 -5 0 -81 44
-168 97 -445 271 -491 294 -648 328 l-99 21 114 17 c147 22 188 43 264 135 34
40 69 85 78 101 l17 30 -93 113 c-112 136 -126 144 -262 132 -49 -4 -176 -8
-281 -9 -190 -2 -190 -2 -245 -31 -30 -16 -98 -72 -153 -126 -99 -98 -99 -98
-80 -119 35 -39 222 -157 284 -180 33 -12 63 -25 65 -29 2 -4 -37 -20 -88 -35
-104 -31 -263 -93 -340 -132 -63 -31 -191 -118 -307 -207 -47 -36 -86 -61 -88
-56 -6 16 50 225 85 320 180 485 451 696 898 699 66 0 149 -4 185 -9z m185
-146 c-9 -21 -10 -36 -4 -40 6 -3 15 8 22 25 6 17 14 31 17 31 9 0 164 -189
168 -204 4 -17 -128 -178 -163 -197 -16 -9 -41 -20 -53 -24 -19 -6 -17 0 14
28 33 30 39 41 39 76 0 53 -30 85 -79 85 l-34 0 30 59 c16 33 26 63 21 68 -4
4 -26 -26 -47 -67 l-39 -75 -27 26 c-47 45 -123 32 -172 -29 l-18 -21 0 28 c0
47 -19 29 -26 -25 l-7 -52 -12 35 c-45 130 -110 189 -207 189 -92 0 -168 -65
-176 -152 -2 -26 -7 -48 -9 -48 -3 0 -27 16 -54 36 -39 28 -47 39 -40 52 14
27 141 145 196 183 45 30 58 34 130 37 51 3 102 -2 141 -12 70 -18 114 -21
114 -7 0 5 -10 11 -22 13 -13 2 15 7 62 11 131 11 162 12 207 9 l42 -4 -14
-34z m-522 -118 c43 -18 86 -63 107 -111 21 -50 43 -136 36 -143 -9 -9 -37 20
-57 61 -32 61 -95 123 -151 147 l-52 22 23 19 c28 23 50 24 94 5z m-112 -122
c13 -14 38 -33 54 -41 47 -24 185 -116 185 -124 0 -28 -197 15 -270 59 -77 47
-89 116 -32 184 l27 32 6 -42 c3 -24 15 -53 30 -68z m69 37 c40 -27 105 -100
96 -108 -10 -10 -148 82 -162 108 -13 27 -13 29 4 29 11 0 39 -13 62 -29z
m309 -53 c-29 -56 -71 -119 -76 -114 -10 10 22 87 49 120 40 49 53 45 27 -6z
m101 22 c22 -14 4 -38 -69 -88 l-61 -42 26 52 c42 85 66 103 104 78z m152 -27
c25 -23 23 -69 -5 -97 -32 -32 -121 -64 -198 -70 l-64 -6 40 14 c22 8 61 19
87 26 69 18 110 46 106 73 -2 18 -9 22 -39 22 -28 0 -35 3 -31 15 13 40 71 53
104 23z m-142 -53 c-15 -28 -70 -67 -120 -85 -24 -9 -40 -12 -36 -8 8 8 159
112 164 113 1 0 -2 -9 -8 -20z m80 -9 c0 -13 -21 -27 -58 -39 -40 -14 -34 1
12 29 34 21 46 24 46 10z m-301 -132 c-17 -11 -75 -12 -65 -1 15 14 71 29 75
19 2 -5 -3 -13 -10 -18z m-99 -4 c0 -2 -42 -37 -92 -78 -104 -83 -190 -170
-233 -236 l-29 -44 -37 43 -37 43 31 39 c38 48 144 135 210 173 63 36 187 76
187 60z m30 -30 c0 -2 -17 -33 -38 -67 -47 -77 -122 -215 -167 -306 l-33 -67
-11 29 c-11 26 -7 39 38 127 60 119 108 195 157 248 32 36 54 51 54 36z m128
-39 c40 -42 42 -47 42 -104 0 -55 -37 -208 -61 -253 -9 -17 -19 -11 -107 62
-53 44 -99 85 -100 90 -6 17 122 231 143 240 33 13 38 11 83 -35z m372 -55
c54 -27 197 -110 318 -185 122 -74 239 -144 261 -156 40 -20 59 -49 24 -35
-10 4 -55 16 -100 28 -50 12 -83 25 -83 33 0 7 -8 20 -17 29 -16 16 -18 16
-32 -2 -15 -18 -51 -20 -51 -3 0 4 -9 10 -20 13 -11 3 -20 14 -20 25 0 10 -5
33 -11 51 -8 23 -17 31 -34 31 -13 0 -27 5 -30 10 -4 6 -10 8 -15 5 -11 -7
-200 95 -200 107 0 4 -7 8 -16 8 -15 0 -244 117 -244 125 0 2 39 -5 86 -16 55
-12 122 -37 184 -68z m-841 7 c-34 -29 -74 -63 -88 -75 -14 -12 -34 -22 -43
-23 -9 0 -21 -8 -27 -17 -8 -14 -12 -15 -25 -4 -9 8 -23 10 -33 6 -10 -5 -22
-7 -27 -6 -18 4 -35 -22 -46 -70 -7 -28 -15 -48 -18 -45 -3 4 -12 0 -21 -7
-25 -22 -51 -28 -51 -13 0 8 -8 17 -17 20 -23 9 -43 -19 -43 -59 0 -40 -7 -47
-32 -32 -16 10 -21 9 -31 -4 -7 -10 -30 -24 -50 -33 -38 -15 -38 -15 -35 8 2
17 44 54 153 135 82 62 178 129 214 149 59 33 255 120 274 121 4 1 -20 -23
-54 -51z m855 -207 c65 -64 144 -146 177 -182 l58 -66 -27 -26 -28 -27 -54 73
c-29 39 -144 161 -254 270 l-201 198 105 -62 c80 -48 133 -90 224 -178z m73
60 c105 -56 143 -85 131 -97 -4 -3 -435 250 -445 261 -9 9 116 -56 314 -164z
m-738 109 c-15 -26 -30 -40 -43 -40 -17 0 -14 6 19 40 21 22 41 40 43 40 2 0
-7 -18 -19 -40z m378 -22 c-20 -13 -27 -9 -27 12 0 18 3 19 20 8 14 -9 16 -14
7 -20z m47 -130 c4 -57 10 -127 13 -156 l6 -53 -44 3 -44 3 -18 75 c-15 64
-16 85 -7 140 16 91 16 90 53 90 l34 0 7 -102z m-827 10 c-3 -8 -6 -5 -6 6 -1
11 2 17 5 13 3 -3 4 -12 1 -19z m-50 -40 c-3 -7 -5 -2 -5 12 0 14 2 19 5 13 2
-7 2 -19 0 -25z m303 28 c0 -2 -7 -7 -16 -10 -8 -3 -12 -2 -9 4 6 10 25 14 25
6z m-251 -75 c1 -35 -5 -22 -12 24 -5 28 -4 34 3 20 5 -11 9 -31 9 -44z m76
20 c-21 -43 -29 -39 -8 4 9 19 18 33 21 31 2 -2 -4 -18 -13 -35z m1080 9 c9
-16 13 -30 11 -30 -3 0 -12 14 -21 30 -9 17 -13 30 -11 30 3 0 12 -13 21 -30z
m-1220 -75 c-4 -31 -9 -54 -12 -51 -3 2 -1 30 2 61 4 31 9 54 12 51 3 -2 1
-30 -2 -61z m1372 23 c-3 -7 -5 -2 -5 12 0 14 2 19 5 13 2 -7 2 -19 0 -25z
m-706 -29 l59 -51 21 49 22 48 15 -58 c8 -32 12 -60 9 -64 -3 -3 -44 -8 -91
-10 -83 -6 -85 -5 -90 18 -7 31 -12 119 -7 119 2 0 30 -23 62 -51z m-358 34
c-7 -2 -21 -2 -30 0 -10 3 -4 5 12 5 17 0 24 -2 18 -5z m-446 -80 c-2 -16 -4
-3 -4 27 0 30 2 43 4 28 2 -16 2 -40 0 -55z m371 70 c-16 -2 -40 -2 -55 0 -16
2 -3 4 27 4 30 0 43 -2 28 -4z m-281 -55 c-2 -13 -4 -5 -4 17 -1 22 1 32 4 23
2 -10 2 -28 0 -40z m320 26 c-3 -3 -12 -4 -19 -1 -8 3 -5 6 6 6 11 1 17 -2 13
-5z m965 -136 c34 -43 66 -78 72 -78 14 0 86 71 86 86 0 6 -7 17 -15 24 -9 7
-29 30 -46 51 l-30 39 40 -15 c139 -49 211 -167 146 -238 -47 -50 -101 -70
-200 -75 -194 -9 -365 77 -365 184 0 59 74 122 167 143 43 9 39 13 145 -121z
m-922 65 c0 -27 3 -106 7 -176 5 -114 4 -127 -10 -121 -13 5 -14 10 -5 30 15
33 -2 69 -47 95 -19 12 -35 26 -36 32 0 7 -4 49 -7 94 l-7 82 25 4 c78 12 80
11 80 -40z m1197 -15 c-2 -13 -4 -3 -4 22 0 25 2 35 4 23 2 -13 2 -33 0 -45z
m-1424 -60 c2 -27 1 -48 -4 -48 -5 0 -9 10 -9 23 0 12 -2 47 -5 77 -4 43 -3
48 4 25 5 -16 11 -51 14 -77z m101 65 c3 -21 6 -60 6 -87 0 -45 -1 -48 -22
-42 -13 3 -30 6 -39 6 -13 0 -18 15 -23 70 -4 38 -4 74 -1 80 3 5 21 10 39 10
31 0 34 -3 40 -37z m-407 -5 c-3 -7 -5 -2 -5 12 0 14 2 19 5 13 2 -7 2 -19 0
-25z m1898 13 c50 -18 50 -18 53 -66 4 -60 -6 -91 -19 -57 -5 12 -17 22 -28
22 -12 0 -23 11 -30 30 -5 17 -17 30 -25 30 -9 0 -16 6 -16 14 0 8 -3 21 -6
30 -8 20 7 19 71 -3z m-1974 -18 c-8 -29 -31 -44 -31 -20 0 14 25 47 35 47 2
0 0 -12 -4 -27z m333 10 c11 -42 17 -141 8 -147 -10 -6 -16 19 -28 112 -4 34
-3 52 4 52 6 0 13 -8 16 -17z m-459 -64 c-25 -54 -15 -112 24 -153 26 -26 34
-48 51 -136 67 -336 142 -566 211 -652 33 -42 26 -49 -15 -17 -52 41 -108 186
-191 489 -20 74 -52 185 -71 245 -49 159 -52 193 -23 252 28 58 41 33 14 -28z
m423 -16 c9 -76 8 -90 -5 -105 -21 -24 -42 -22 -143 10 l-85 28 -3 39 c-2 23
3 48 11 59 14 20 129 54 183 55 l31 1 11 -87z m1579 55 c-3 -7 -5 -2 -5 12 0
14 2 19 5 13 2 -7 2 -19 0 -25z m259 -43 c23 -55 17 -89 -35 -209 -51 -117
-98 -258 -151 -456 -17 -63 -42 -138 -54 -166 -47 -103 -128 -163 -236 -177
l-45 -6 45 16 c51 18 97 47 123 77 47 55 116 229 213 535 45 142 61 181 89
212 19 21 37 50 41 64 7 28 1 99 -11 128 -4 9 -4 17 -1 17 4 0 14 -16 22 -35z
m-295 -120 l-11 -40 5 40 c3 22 6 63 7 90 l2 50 3 -50 c2 -27 -1 -68 -6 -90z
m-1836 42 c98 -49 356 -119 665 -181 294 -59 392 -71 555 -70 139 1 160 3 286
37 240 63 468 160 549 233 34 31 41 34 46 19 11 -27 -16 -97 -50 -130 -92 -93
-420 -224 -662 -266 -101 -17 -350 -6 -519 24 -255 46 -699 153 -824 199 -117
43 -178 109 -165 177 l6 30 32 -23 c17 -13 54 -35 81 -49z m1882 31 c-3 -7 -5
-2 -5 12 0 14 2 19 5 13 2 -7 2 -19 0 -25z m-1487 -84 c0 -19 -4 -34 -10 -34
-5 0 -10 18 -10 41 0 24 4 38 10 34 6 -3 10 -22 10 -41z m138 19 c41 -22 54
-60 28 -82 -24 -20 -136 20 -136 49 0 5 16 -2 36 -15 39 -27 104 -34 104 -12
-1 29 -33 51 -110 74 l-45 13 43 -4 c23 -2 59 -13 80 -23z m1339 -10 c-3 -10
-5 -4 -5 12 0 17 2 24 5 18 2 -7 2 -21 0 -30z m-1543 -8 c-10 -8 -23 -14 -29
-14 -5 -1 1 8 15 19 14 10 27 17 29 14 3 -2 -4 -11 -15 -19z m994 -96 c26 -11
72 -26 102 -33 62 -14 57 -18 -53 -37 l-69 -11 -39 38 c-44 43 -67 39 -25 -5
33 -34 22 -42 -47 -34 -43 5 -47 8 -47 33 0 31 25 106 41 127 9 10 19 6 51
-23 22 -19 61 -44 86 -55z m-1225 -34 c70 -21 87 -30 87 -46 0 -16 -7 -19 -43
-19 -49 0 -134 23 -158 42 -9 7 -19 28 -23 46 l-6 32 28 -14 c15 -8 66 -26
115 -41z m1907 -1 c0 -27 -72 -91 -115 -103 -56 -15 -75 -14 -75 7 1 11 30 32
93 63 51 26 93 47 95 48 1 0 2 -6 2 -15z m-1770 -58 c0 -12 2 -52 5 -87 7 -85
-10 -47 -20 44 -5 47 -4 67 4 67 6 0 11 -11 11 -24z m249 -41 c103 -25 195
-45 204 -45 9 0 17 -7 17 -16 0 -15 -13 -16 -112 -11 -162 7 -328 62 -328 108
0 15 4 19 16 15 9 -3 100 -26 203 -51z m-430 19 c24 -8 66 -14 93 -14 47 0 48
-1 48 -31 l0 -32 -73 5 c-94 6 -129 23 -138 66 -6 28 -4 32 10 26 9 -3 36 -13
60 -20z m1910 -43 c-12 -35 -59 -60 -129 -68 -50 -6 -50 -5 -42 17 7 19 21 26
63 35 30 6 68 18 84 28 17 9 31 16 32 17 1 0 -3 -13 -8 -29z m-245 -28 c-44
-35 -171 -72 -278 -79 -144 -10 -151 4 -16 33 63 14 160 39 215 57 104 34 130
30 79 -11z m-1309 -23 c47 -15 107 -24 183 -27 95 -5 112 -8 110 -21 -4 -22
-39 -30 -134 -31 -151 -2 -304 66 -304 135 0 2 17 -4 38 -15 20 -10 69 -29
107 -41z m1362 28 c-3 -8 -6 -5 -6 6 -1 11 2 17 5 13 3 -3 4 -12 1 -19z
m-1030 -120 c-2 -24 -4 -7 -4 37 0 44 2 63 4 43 2 -21 2 -57 0 -80z m-686 66
l34 -37 -30 7 c-38 10 -55 24 -55 47 0 28 12 23 51 -17z m869 11 c52 -9 146
-18 208 -22 83 -4 112 -9 112 -19 0 -22 -47 -29 -175 -28 -106 0 -130 4 -205
30 -60 21 -86 35 -88 48 -3 15 1 17 25 12 15 -3 71 -13 123 -21z m830 -25 c-6
-23 -13 -40 -15 -38 -2 2 1 23 7 46 6 24 13 41 15 38 2 -2 -1 -23 -7 -46z
m-1575 5 c37 -15 80 -25 111 -25 29 0 67 -6 85 -14 l34 -14 -30 -12 c-18 -7
-60 -10 -101 -8 -75 5 -137 32 -178 77 -19 21 -19 21 0 21 10 0 46 -11 79 -25z
m1539 2 c-19 -50 -145 -87 -296 -87 -96 0 -108 2 -108 18 0 15 12 17 98 18
105 0 179 15 257 49 28 12 51 21 53 20 1 -1 0 -9 -4 -18z m-434 -66 c-3 -33
-10 -64 -14 -68 -5 -4 -6 10 -3 32 4 22 7 52 7 68 0 15 4 27 8 27 4 0 5 -27 2
-59z m561 18 c-54 -49 -130 -73 -197 -63 -38 5 -43 9 -29 17 10 5 49 13 87 17
51 6 81 16 116 38 65 42 75 38 23 -9z m80 7 c-6 -14 -15 -26 -20 -26 -5 0 -18
-3 -28 -7 -11 -4 -6 7 16 30 39 41 46 42 32 3z m-979 -31 c77 -17 179 -19 248
-5 51 9 58 7 41 -14 -18 -22 -107 -40 -191 -40 -117 1 -270 54 -270 93 0 19 1
19 51 0 28 -11 82 -26 121 -34z m848 51 c0 -3 -4 -8 -10 -11 -5 -3 -10 -1 -10
4 0 6 5 11 10 11 6 0 10 -2 10 -4z m-1710 -36 c25 -6 55 -13 68 -15 36 -9 15
-25 -31 -24 -59 1 -91 12 -95 32 -4 20 -2 20 58 7z m617 -27 c-3 -2 -16 -1
-29 3 l-23 8 25 6 c23 6 39 -4 27 -17z m-177 -41 c-5 -2 -36 4 -67 14 l-58 17
30 12 c27 12 33 10 67 -14 20 -14 33 -27 28 -29z m121 26 c33 -17 67 -23 134
-26 100 -4 128 -16 69 -29 -99 -21 -245 6 -306 57 l-23 19 41 1 c22 0 60 -10
85 -22z m1259 -7 c0 -14 -27 -21 -77 -21 -55 0 -50 11 10 21 62 10 67 10 67 0z
m-1680 -21 c0 -17 -3 -18 -26 -8 -23 11 -24 13 -7 19 29 12 33 10 33 -11z m49
-22 c1 -5 -3 -8 -9 -8 -5 0 -10 12 -9 28 0 24 1 25 9 7 5 -11 9 -23 9 -27z
m143 22 c25 -11 81 -24 125 -28 44 -5 89 -14 99 -20 29 -16 -102 -27 -165 -13
-53 11 -145 53 -156 71 -11 17 50 11 97 -10z m1152 11 c3 -5 -8 -14 -26 -20
-47 -17 -56 -13 -23 9 34 22 41 24 49 11z m-231 -8 c-7 -2 -19 -2 -25 0 -7 3
-2 5 12 5 14 0 19 -2 13 -5z m137 1 c0 -13 -131 -64 -188 -73 -68 -11 -156 0
-202 24 -22 12 -8 14 110 12 121 -2 139 0 175 19 37 20 105 32 105 18z m-1393
-52 c-20 -4 -37 13 -37 36 0 9 10 5 28 -10 26 -21 27 -23 9 -26z m85 26 c36
-25 123 -47 193 -49 28 0 61 -4 75 -8 24 -7 24 -7 -9 -14 -52 -11 -121 -8
-179 7 -52 14 -135 57 -147 76 -11 19 37 10 67 -12z m168 -13 c0 -12 -29 -3
-34 10 -4 13 -2 14 14 5 11 -6 20 -13 20 -15z m1271 -8 c-52 -24 -81 -31 -145
-34 -76 -4 -79 -3 -56 11 14 8 43 16 65 16 22 0 63 9 90 20 28 10 64 18 80 18
26 0 21 -4 -34 -31z m-581 -3 c24 -14 22 -15 -35 -9 -73 7 -98 25 -34 25 24
-1 55 -8 69 -16z m790 11 c0 -10 -62 -36 -106 -44 -25 -5 -58 -5 -72 -1 -23 7
-21 8 18 10 25 0 68 9 95 19 57 21 65 23 65 16z m70 -5 c0 -5 -7 -10 -16 -10
-8 0 -12 5 -9 10 3 6 10 10 16 10 5 0 9 -4 9 -10z m-982 -26 c21 -9 77 -18
127 -21 50 -2 101 -7 115 -10 l25 -6 -25 -7 c-38 -12 -170 -11 -215 0 -22 6
-58 18 -79 28 -37 16 -38 17 -15 23 13 4 25 7 27 8 1 1 19 -6 40 -15z m-721
-26 c45 -16 42 -25 -12 -34 -58 -8 -91 1 -98 26 -5 18 0 20 36 20 22 0 56 -5
74 -12z m508 -3 c22 -8 65 -14 95 -15 70 0 107 -9 88 -21 -25 -16 -135 -9
-204 13 -60 18 -66 22 -44 29 14 4 25 7 25 8 0 0 18 -6 40 -14z m1175 5 c0 -5
-24 -10 -52 -10 -38 0 -49 3 -38 10 20 13 90 13 90 0z m-300 -9 c0 -9 -53 -31
-74 -31 -15 0 25 27 49 33 11 2 21 5 23 6 1 0 2 -3 2 -8z m-990 -11 c11 -7 -3
-10 -45 -10 -42 0 -56 3 -45 10 8 5 29 10 45 10 17 0 37 -5 45 -10z m830 -28
c-49 -24 -66 -27 -162 -27 -60 0 -112 5 -118 11 -7 7 19 9 83 6 72 -3 105 1
152 16 86 28 110 25 45 -6z m229 12 c-31 -37 -92 -58 -184 -61 -74 -3 -86 -1
-65 8 14 7 53 15 86 19 34 4 79 16 100 27 22 11 47 21 58 22 16 1 16 -1 5 -15z
m43 -26 c-6 -6 -7 0 -4 19 5 21 7 23 10 9 2 -10 0 -22 -6 -28z m68 21 c0 -5
-2 -9 -4 -9 -2 0 -11 -3 -19 -6 -12 -4 -14 0 -10 15 5 19 33 19 33 0z m-1463
-11 c-3 -8 -6 -5 -6 6 -1 11 2 17 5 13 3 -3 4 -12 1 -19z m290 -2 c56 -1 105
-4 109 -8 16 -16 -57 -32 -146 -32 -84 -1 -102 3 -150 27 l-55 27 70 -7 c39
-3 116 -7 172 -7z m1213 -10 c-49 -33 -122 -56 -173 -55 -36 1 -31 3 31 14 40
7 91 25 115 39 53 32 73 34 27 2z m-772 4 c17 0 32 -4 32 -10 0 -5 -11 -10
-24 -10 -40 0 -86 12 -86 22 0 6 10 8 23 4 12 -3 37 -6 55 -6z m-864 -26 c19
-13 19 -14 1 -20 -21 -9 -49 7 -53 30 -4 17 17 14 52 -10z m81 11 c22 -8 61
-14 87 -15 26 0 50 -4 53 -10 16 -26 -147 -4 -190 26 -26 19 -3 18 50 -1z
m720 -22 c39 -11 64 -11 111 -3 36 6 71 7 85 2 20 -8 18 -10 -24 -20 -72 -19
-167 -15 -243 10 -65 20 -67 22 -39 29 17 3 37 4 45 1 8 -2 38 -11 65 -19z
m885 17 c0 -5 -7 -10 -16 -10 -8 0 -12 5 -9 10 3 6 10 10 16 10 5 0 9 -4 9
-10z m-1093 -22 c-3 -8 -6 -5 -6 6 -1 11 2 17 5 13 3 -3 4 -12 1 -19z m-37 2
c0 -5 -8 -10 -17 -10 -15 0 -16 2 -3 10 19 12 20 12 20 0z m-466 -45 c-16 -6
-46 -14 -66 -18 -31 -5 -40 -2 -48 13 -9 17 -6 19 42 22 29 2 64 1 77 -1 23
-4 23 -4 -5 -16z m271 16 l40 -9 -40 0 c-22 0 -49 3 -60 8 l-20 9 20 0 c11 0
38 -4 60 -8z m257 -6 c107 0 117 -12 17 -21 -68 -7 -179 10 -179 28 0 6 12 7
33 1 17 -4 76 -8 129 -8z m1040 3 c-8 -8 -20 -8 -44 -1 l-33 11 45 1 c33 1 41
-2 32 -11z m-1378 -18 c35 -16 63 -20 118 -19 40 2 82 -2 93 -8 16 -9 10 -12
-39 -18 -31 -4 -79 -5 -105 -3 -53 5 -144 45 -135 59 8 13 16 12 68 -11z m926
4 c-19 -9 -58 -18 -86 -21 -60 -6 -147 4 -139 17 3 5 20 4 38 -1 43 -12 104
-10 152 6 55 18 77 17 35 -1z m169 12 c-11 -9 -90 -16 -84 -6 3 5 25 10 47 10
23 0 39 -2 37 -4z m-1222 -28 c-3 -8 -6 -5 -6 6 -1 11 2 17 5 13 3 -3 4 -12 1
-19z m723 1 c57 0 61 -2 37 -11 -35 -12 -160 -1 -151 14 3 5 16 7 28 4 11 -3
50 -6 86 -7z m535 -6 c-20 -11 -62 -17 -130 -20 -67 -2 -93 0 -80 6 11 5 54
10 95 11 41 1 84 5 95 10 35 15 51 10 20 -7z m195 2 c0 -4 -19 -15 -42 -25
-42 -19 -132 -27 -141 -12 -3 4 20 7 51 7 33 0 70 7 87 17 33 17 45 21 45 13z
m-1425 -28 c47 2 56 0 41 -9 -22 -13 -126 -5 -153 11 -14 10 -11 10 17 4 19
-4 62 -7 95 -6z m609 -7 c46 -9 78 -9 139 0 86 12 111 8 50 -10 -98 -28 -220
-22 -298 15 l-30 15 40 -4 c22 -2 67 -9 99 -16z m834 -2 c-20 -31 -62 -50 -96
-45 -27 4 -27 4 -4 12 13 4 42 18 65 30 23 12 44 23 46 24 2 0 -3 -9 -11 -21z
m-1579 -15 c2 -2 -5 -3 -17 -3 -14 0 -22 6 -22 16 0 14 3 15 18 3 9 -7 19 -15
21 -16z m1340 -2 c15 -10 -68 -31 -117 -31 -25 1 -26 1 -7 12 17 10 67 23 100
27 6 0 16 -3 24 -8z m-1052 -7 c-3 -3 -12 -4 -19 -1 -8 3 -5 6 6 6 11 1 17 -2
13 -5z m196 -1 c-7 -2 -19 -2 -25 0 -7 3 -2 5 12 5 14 0 19 -2 13 -5z m144 1
c-3 -3 -12 -4 -19 -1 -8 3 -5 6 6 6 11 1 17 -2 13 -5z m519 -10 c-56 -20 -134
-27 -181 -16 -36 9 -31 10 50 12 50 1 99 5 110 10 11 5 29 9 40 9 11 0 2 -7
-19 -15z m-1076 -3 c0 -12 -25 -21 -58 -21 -42 0 -4 24 46 29 6 0 12 -3 12 -8z
m154 -6 c31 -9 93 -15 165 -16 94 0 111 -2 91 -11 -43 -20 -208 -16 -262 6
-27 10 -48 23 -48 27 0 11 -4 12 54 -6z m149 8 c-7 -2 -19 -2 -25 0 -7 3 -2 5
12 5 14 0 19 -2 13 -5z m200 0 c-13 -2 -35 -2 -50 0 -16 2 -5 4 22 4 28 0 40
-2 28 -4z m-435 -39 c-3 -14 -5 -12 -10 9 -3 19 -2 25 4 19 6 -6 8 -18 6 -28z
m611 20 c9 -8 -45 -2 -64 6 -14 7 -8 8 20 3 22 -3 42 -7 44 -9z m641 5 c0 -31
-193 -62 -285 -45 -62 12 -30 20 88 21 77 2 123 7 147 18 43 19 50 20 50 6z
m31 -23 c-14 -36 -22 -33 -9 5 6 16 12 28 14 26 3 -2 0 -16 -5 -31z m-1321 -1
c0 -8 -7 -15 -16 -15 -14 0 -14 3 -4 15 7 8 14 15 16 15 2 0 4 -7 4 -15z m570
-1 c36 -13 71 -15 180 -11 99 4 128 3 110 -5 -70 -29 -294 -18 -360 18 l-25
13 25 0 c14 1 45 -6 70 -15z m143 9 c-7 -2 -19 -2 -25 0 -7 3 -2 5 12 5 14 0
19 -2 13 -5z m-266 -35 c-3 -7 -5 -2 -5 12 0 14 2 19 5 13 2 -7 2 -19 0 -25z
m-347 12 c13 -8 13 -10 -2 -10 -9 0 -20 5 -23 10 -8 13 5 13 25 0z m310 -10
c0 -5 -10 -10 -22 -9 -22 0 -22 1 -3 9 11 5 21 9 23 9 1 1 2 -3 2 -9z m530 6
c0 -3 -4 -8 -10 -11 -5 -3 -10 -1 -10 4 0 6 5 11 10 11 6 0 10 -2 10 -4z"/>
<path d="M3665 3504 c-39 -36 -65 -64 -59 -62 15 4 137 118 132 123 -2 2 -35
-25 -73 -61z"/>
<path d="M1226 3431 c-23 -33 -26 -43 -16 -60 13 -26 65 -29 74 -5 11 29 6 54
-13 66 -10 6 -17 18 -14 25 10 24 -4 13 -31 -26z m42 -13 c30 -30 -1 -73 -36
-51 -23 14 -25 29 -7 47 20 19 27 20 43 4z"/>
<path d="M3770 3424 c0 -7 7 -14 15 -18 17 -6 20 -51 5 -61 -6 -4 -20 5 -32
20 -29 38 -73 32 -73 -10 0 -20 7 -33 22 -41 13 -6 20 -14 16 -17 -3 -4 -3 -7
2 -7 12 0 95 70 95 80 0 14 -49 67 -50 54z m-22 -67 c25 -27 20 -37 -19 -37
-19 0 -30 6 -34 20 -14 43 19 53 53 17z"/>
<path d="M1314 3355 c-9 -14 -23 -24 -30 -21 -8 3 -14 1 -14 -4 0 -19 32 -10
52 15 34 44 70 21 46 -30 -15 -33 -37 -39 -61 -18 -14 13 -19 14 -15 4 14 -44
60 -38 88 12 30 53 -33 93 -66 42z"/>
<path d="M3840 3325 c0 -6 -18 -21 -40 -35 -43 -26 -53 -41 -44 -65 9 -24 22
-17 17 8 -4 20 3 29 38 49 40 24 44 24 56 9 12 -15 13 -14 7 2 -3 9 -2 23 4
30 8 9 4 12 -14 12 -13 0 -24 -5 -24 -10z"/>
<path d="M1142 3318 c-7 -7 -12 -22 -12 -34 0 -12 -5 -24 -10 -26 -6 -2 15
-18 46 -37 30 -18 58 -31 60 -28 3 2 -16 17 -41 31 -49 29 -60 61 -29 87 14
12 24 10 65 -14 65 -36 75 -34 19 3 -48 32 -79 37 -98 18z"/>
<path d="M1040 3230 c0 -5 5 -10 11 -10 5 0 7 5 4 10 -3 6 -8 10 -11 10 -2 0
-4 -4 -4 -10z"/>
<path d="M1090 3199 c35 -23 110 -59 110 -51 0 4 -25 20 -55 35 -56 27 -83 35
-55 16z"/>
<path d="M1055 3160 c-3 -11 -3 -24 0 -30 3 -5 0 -10 -7 -10 -7 -1 13 -15 46
-31 32 -17 60 -28 63 -25 3 2 -13 14 -34 25 -50 25 -66 45 -58 71 3 11 4 20 1
20 -2 0 -7 -9 -11 -20z"/>
<path d="M3933 3162 c22 -24 22 -48 0 -56 -15 -6 -32 8 -33 26 0 14 -41 29
-60 23 -26 -8 -26 -47 0 -70 11 -10 17 -22 14 -27 -3 -5 17 2 45 17 29 14 55
33 58 41 7 19 -13 64 -28 64 -8 0 -6 -7 4 -18z m-43 -39 c22 -28 14 -43 -23
-43 -25 0 -46 48 -26 61 21 13 26 12 49 -18z"/>
<path d="M1007 3039 c-29 -41 9 -89 70 -89 26 0 36 6 48 30 8 16 15 35 15 42
-1 7 -9 -3 -18 -22 -12 -25 -25 -36 -45 -38 -31 -4 -32 -3 -12 45 21 49 19 53
-14 53 -19 0 -35 -8 -44 -21z m48 -25 c-8 -20 -15 -39 -15 -41 0 -3 -7 0 -15
7 -15 13 -20 51 -8 63 3 4 17 7 30 7 23 0 23 -1 8 -36z"/>
<path d="M4053 3006 c2 -28 -2 -30 -78 -57 -44 -15 -73 -28 -64 -28 9 -1 42 8
74 19 73 25 79 25 94 -2 11 -22 11 -21 6 6 -3 16 -12 43 -20 60 l-14 31 2 -29z"/>
<path d="M970 2954 c0 -5 23 -25 50 -44 l49 -35 -67 -11 c-54 -9 -59 -12 -27
-12 22 -1 58 2 80 6 l39 7 -49 40 c-71 56 -75 58 -75 49z"/>
<path d="M4085 2880 c-3 -5 -1 -10 4 -10 6 0 11 5 11 10 0 6 -2 10 -4 10 -3 0
-8 -4 -11 -10z"/>
<path d="M3990 2859 c-52 -15 -63 -19 -58 -24 2 -2 33 4 69 14 64 20 55 28
-11 10z"/>
<path d="M890 2830 c0 -5 5 -10 11 -10 5 0 7 5 4 10 -3 6 -8 10 -11 10 -2 0
-4 -4 -4 -10z"/>
<path d="M931 2816 c8 -9 129 -33 129 -26 0 3 -23 12 -51 18 -51 12 -86 15
-78 8z"/>
<path d="M4000 2804 l-55 -13 50 4 c59 6 78 -4 73 -36 -2 -19 -12 -26 -43 -33
-56 -12 -68 -16 -64 -20 2 -3 24 -1 49 4 27 5 52 4 63 -2 26 -14 18 -51 -13
-60 -100 -28 -98 -27 -45 -21 28 3 58 10 68 15 21 11 22 51 2 68 -11 9 -12 17
-4 31 7 13 6 26 -3 42 -7 12 -11 25 -10 30 2 8 2 8 -68 -9z"/>
<path d="M870 2767 c8 -8 171 -39 177 -34 2 3 -18 10 -46 16 -74 16 -137 25
-131 18z"/>
<path d="M920 2690 c-11 -11 -20 -27 -20 -35 0 -27 38 -55 74 -55 44 0 66 22
65 63 l-2 32 -4 -30 c-6 -38 -20 -55 -45 -55 -18 0 -19 5 -13 50 6 46 5 50
-14 50 -12 0 -30 -9 -41 -20z m46 -12 c-3 -13 -6 -31 -6 -40 0 -24 -27 -23
-40 2 -8 15 -6 24 10 40 27 27 44 26 36 -2z"/>
<path d="M4011 2587 c-29 -15 -40 -43 -30 -77 6 -22 7 -21 8 11 2 66 51 85 51
19 0 -45 16 -58 49 -40 29 15 28 64 -1 84 -27 19 -45 20 -77 3z m83 -29 c8
-13 8 -23 0 -35 -19 -31 -39 -21 -42 20 -3 32 0 38 14 35 9 -1 22 -11 28 -20z"/>
<path d="M873 2551 c-20 -19 -41 -96 -30 -108 3 -3 44 -8 91 -10 l86 -6 0 51
c0 43 -4 54 -26 71 -34 27 -93 28 -121 2z m119 -18 c12 -10 18 -30 18 -56 l0
-40 -37 7 c-21 3 -57 6 -81 6 -36 0 -43 3 -39 18 3 9 8 30 11 45 11 47 85 59
128 20z"/>
<path d="M1440 1034 l0 -65 -22 15 c-71 50 -148 -19 -148 -131 0 -43 28 -111
51 -123 28 -16 81 -12 102 7 18 17 19 17 32 0 8 -11 26 -17 49 -17 l36 0 0
190 0 190 -50 0 -50 0 0 -66z m0 -133 c32 -62 -15 -142 -58 -99 -13 13 -16 75
-6 102 9 22 51 20 64 -3z"/>
<path d="M1653 1085 c-13 -9 -25 -32 -29 -53 -4 -20 -15 -43 -26 -50 -25 -18
-24 -62 2 -62 19 0 20 -7 20 -100 l0 -100 45 0 45 0 0 100 0 100 30 0 c28 0
30 2 30 39 0 33 -3 39 -18 36 -24 -4 -46 10 -38 24 4 6 18 11 31 11 16 0 26 8
33 29 9 26 8 30 -11 35 -40 10 -92 6 -114 -9z"/>
<path d="M2140 911 l0 -191 50 0 50 0 -2 188 -3 187 -47 3 -48 3 0 -190z"/>
<path d="M2797 1080 c-14 -11 -28 -35 -31 -55 -4 -20 -14 -39 -22 -42 -19 -7
-19 -63 1 -63 12 0 15 -18 15 -100 l0 -100 50 0 50 0 0 99 0 100 28 3 c24 3
27 7 27 38 0 21 -5 36 -12 36 -7 1 -20 2 -28 3 -29 2 -16 31 14 31 23 0 30 5
35 27 9 33 -5 43 -60 43 -26 0 -51 -7 -67 -20z"/>
<path d="M270 898 l0 -178 45 0 45 0 0 70 0 70 55 0 55 0 0 -70 0 -70 50 0 50
0 0 181 0 180 -47 -3 -48 -3 -3 -67 -3 -68 -54 0 -55 0 0 68 0 69 -45 -1 -45
0 0 -178z"/>
<path d="M3090 900 l0 -180 45 0 45 0 0 70 0 70 60 0 60 0 0 -70 0 -70 45 0
45 0 0 178 0 177 -45 3 -44 2 -3 -67 -3 -68 -55 0 -55 0 -5 65 -5 65 -42 2
-43 2 0 -179z"/>
<path d="M693 989 c-36 -11 -38 -16 -22 -53 10 -21 15 -23 31 -15 29 16 82 7
86 -13 3 -15 -4 -18 -45 -18 -30 0 -60 -7 -80 -20 -29 -18 -33 -25 -33 -65 0
-60 25 -85 83 -85 23 0 53 7 66 16 22 16 24 16 33 0 6 -10 22 -16 45 -16 l36
0 -5 111 c-4 102 -6 112 -31 136 -20 21 -37 27 -79 29 -29 2 -68 -1 -85 -7z
m97 -169 c0 -29 -38 -46 -58 -26 -13 12 -13 18 -2 30 19 24 60 21 60 -4z"/>
<path d="M956 993 c-3 -3 -6 -66 -6 -140 l0 -133 50 0 50 0 0 88 c0 98 7 115
41 110 23 -3 24 -6 27 -100 l3 -98 50 0 51 0 -4 116 c-3 114 -3 116 -32 141
-25 21 -37 24 -73 20 -24 -2 -52 -12 -63 -22 -17 -15 -18 -15 -22 1 -3 17 -58
30 -72 17z"/>
<path d="M1815 991 c-3 -2 -5 -53 -5 -113 0 -102 1 -110 25 -133 29 -30 97
-34 133 -9 20 14 23 14 28 0 4 -11 19 -16 45 -16 l40 0 -3 137 -3 138 -45 0
-45 0 -5 -90 c-5 -98 -11 -115 -40 -115 -30 0 -40 31 -40 122 l0 84 -40 0
c-22 0 -43 -2 -45 -5z"/>
<path d="M2493 985 c-90 -39 -99 -198 -14 -248 16 -9 50 -17 76 -17 89 0 135
47 135 137 0 110 -96 172 -197 128z m95 -88 c20 -41 4 -101 -27 -105 -33 -5
-43 9 -43 61 -2 76 42 102 70 44z"/>
<path d="M3436 993 c-2 -2 20 -64 49 -136 47 -115 52 -135 41 -152 -8 -11 -26
-22 -42 -25 -25 -5 -29 -9 -29 -40 0 -32 3 -35 32 -38 43 -4 95 21 115 56 15
24 128 321 128 334 0 2 -21 4 -47 4 l-47 -1 -27 -90 -26 -90 -22 75 c-30 103
-29 100 -43 101 -56 5 -78 6 -82 2z"/>
<path d="M3808 985 c-51 -29 -64 -92 -28 -138 17 -22 18 -26 5 -37 -17 -14
-20 -46 -5 -55 16 -10 12 -23 -9 -30 -24 -7 -35 -37 -27 -70 12 -46 118 -70
197 -44 56 19 79 47 79 95 0 52 -25 74 -85 74 -49 0 -85 9 -85 21 0 5 16 9 35
9 70 0 127 56 111 108 -5 14 -1 21 14 25 12 3 20 13 20 26 0 12 -1 21 -2 21
-2 1 -46 3 -98 6 -74 3 -101 1 -122 -11z m90 -47 c30 -30 -1 -94 -33 -68 -25
20 -13 80 15 80 3 0 11 -5 18 -12z m38 -240 c10 -16 -25 -38 -60 -38 -40 0
-61 14 -53 34 8 19 102 23 113 4z"/>
<path d="M4113 986 c-55 -25 -71 -91 -33 -139 17 -22 18 -26 5 -37 -17 -14
-20 -46 -5 -55 16 -10 12 -23 -9 -30 -11 -3 -23 -15 -26 -26 -24 -75 73 -120
190 -88 60 16 85 44 85 95 0 52 -25 74 -85 74 -49 0 -85 9 -85 21 0 5 16 9 35
9 70 0 127 56 111 108 -5 14 -1 21 14 25 25 6 27 44 3 50 -43 11 -170 6 -200
-7z m85 -48 c30 -30 -1 -94 -33 -68 -25 20 -13 80 15 80 3 0 11 -5 18 -12z
m38 -240 c10 -16 -25 -38 -60 -38 -40 0 -61 14 -53 34 8 19 102 23 113 4z"/>
<path d="M4423 980 c-83 -50 -85 -195 -4 -243 33 -19 140 -23 172 -7 23 13 28
76 5 67 -60 -23 -136 -13 -136 18 0 12 15 15 80 15 l80 0 0 48 c0 57 -20 89
-66 108 -46 19 -93 17 -131 -6z m105 -62 c21 -21 13 -28 -28 -28 -38 0 -52 14
-33 33 11 11 48 8 61 -5z"/>
</g>
</svg>
